# xmcd
#
# Track frame offsets:
#	150
#	20706
#	38985
#	63850
#	87675
#	121226
#	154204
#	182322
#	202616
#	230441
#	251484
#	272199
#	291226
#
# Disc length: 4351 seconds
#
# Revision: 0
# Processed by: cddbd v1.5.2PL0 Copyright (c) Steve Scherf et al.
# Submitted via: EZCDAudioConverter 7.0.7.1
#
DISCID=b110fd0d
DTITLE=Aretha Franklin - Aretha [Expanded Edition] [CD2]
DYEAR=1987
DGENRE=R&B
TTITLE0=Aretha Franklin and Larry Graham - If You Need My Love Tonight
TTITLE1=Aretha Franklin and George Michael - I Knew You Were Waiting (For Me) (I
TTITLE1=nstrumental)
TTITLE2=Aretha Franklin and George Michael - I Knew You Were Waiting (For Me) (E
TTITLE2=dited Remix)
TTITLE3=Aretha Franklin and George Michael - I Knew You Were Waiting (For Me) (P
TTITLE3=ercapella)
TTITLE4=Aretha Franklin and George Michael - I Knew You Were Waiting (For Me) (E
TTITLE4=xtended Remix)
TTITLE5=Aretha Franklin - Jimmy Lee (Extended Remix)
TTITLE6=Aretha Franklin - Jimmy Lee (Dub Version)
TTITLE7=Aretha Franklin - Jumpin' Jack Flash (7" Mix)
TTITLE8=Aretha Franklin - Jumpin' Jack Flash (Street Mix)
TTITLE9=Aretha Franklin - Jumpin' Jack Flash (Edited Street Mix)
TTITLE10=Aretha Franklin - Jumpin' Jack Flash (Master Dub Mix)
TTITLE11=Aretha Franklin - Jumpin' Jack Flash (Beat Dub Mix)
TTITLE12=Aretha Franklin - Aretha Megamix (Who's Zoomin' Who? - Another Night 
TTITLE12=/ Integrity - Freeway Of Love)
EXTD=
EXTT0=
EXTT1=
EXTT2=
EXTT3=
EXTT4=
EXTT5=
EXTT6=
EXTT7=
EXTT8=
EXTT9=
EXTT10=
EXTT11=
EXTT12=
PLAYORDER=
